<svg xmlns="http://www.w3.org/2000/svg" viewBox="0 0 512 512" enable-background="new 0 0 512 512"><path fill="#553732" d="M397.24 141.24C388.4 61.8 334 0 256 0S123.6 61.8 114.76 141.24c-4.4 39.73-17.66 158.9-17.66 158.9s61.8 26.48 158.9 26.48 158.9-26.48 158.9-26.48-13.25-119.17-17.66-158.9z"/><path fill="#64463C" d="M326.62 44.14c-35.3-17.66-79.45-8.83-79.45-8.83 26.5 70.63 61.8 105.94 61.8 105.94v182.68c66-6.72 105.93-23.78 105.93-23.78s-13.24-119.17-17.66-158.9C388.4 61.8 334 0 256 0c52.97 0 70.62 44.14 70.62 44.14z"/><path fill="#00BED2" d="M300.14 317.8h-88.28L107.8 350.3c-22.12 6.9-37.18 27.4-37.18 50.55v93.48c0 9.75 7.9 17.65 17.66 17.65h335.44c9.75 0 17.66-7.9 17.66-17.66v-93.47c0-23.16-15.06-43.64-37.17-50.55L300.15 317.8z"/><path fill="#B48764" d="M317.8 370.76h-44.15l-14.25 49.9c-.98 3.42-5.82 3.42-6.8 0l-14.26-49.9H194.2v-88.28h123.6v88.28z"/><path fill="#966D50" d="M194.2 282.48v77.47c80.13-11.03 123.6-68.64 123.6-68.64v-8.82H194.2z"/><path fill="#646464" d="M256 264.83c-15.7 0-30.38-3.86-40.28-10.6-4.03-2.74-5.07-8.24-2.33-12.26 2.73-4.03 8.23-5.08 12.26-2.34 6.94 4.73 18.28 7.55 30.34 7.55 12.06 0 23.4-2.82 30.35-7.55 4.03-2.75 9.52-1.7 12.26 2.34 2.75 4.03 1.7 9.53-2.32 12.27-9.9 6.73-24.58 10.6-40.28 10.6z"/><path fill="#C39772" d="M353.1 168.17V97.1H158.9v143.5c0 15.1 7.7 29.13 20.44 37.24l48.22 30.68c17.35 11.05 39.53 11.05 56.88 0l48.22-30.68c12.73-8.1 20.44-22.15 20.44-37.24v-20.35c10.08-2.05 17.66-10.95 17.66-21.63v-8.83c0-10.68-7.58-19.6-17.66-21.63z"/><path fill="#B48764" d="M206.1 132.94c40.85 15 101.5 21.33 147 24V97.1H158.9v71.07c-10.08 2.04-17.66 10.95-17.66 21.62v8.82c0 10.68 7.58 19.58 17.66 21.62v20.36c0 15.1 7.7 29.13 20.44 37.23l48.22 30.7c7.94 5.05 16.9 7.67 25.94 8.1-32.88-14.5-50.48-48.47-56.68-62.85-1.73-4-2.62-8.25-2.62-12.6v-100c0-6.16 6.1-10.36 11.9-8.24z"/><g fill="#E4EAF6"><path d="M194.2 308.97l44.15 61.8s-17.66 17.64-35.31 44.13c-.02.02-24.48-61.16-32.67-81.67-1.55-3.87-.16-8.27 3.3-10.58l20.54-13.68zM317.8 308.97l-44.15 61.8s17.66 17.64 35.32 44.13c0 .02 24.47-61.16 32.66-81.67 1.55-3.87.16-8.27-3.3-10.58l-20.54-13.68z"/></g><path fill="#966D50" d="M256 273.66c-10.75 0-21.17-2.15-30.13-6.2-4.44-2.03-6.4-7.26-4.4-11.7 2.02-4.44 7.25-6.4 11.7-4.4 13.35 6.07 32.3 6.07 45.67 0 4.45-2 9.67-.04 11.68 4.4 2.02 4.44.05 9.67-4.4 11.7-8.95 4.05-19.37 6.2-30.12 6.2z"/><g fill="#00A6BD"><path d="M379.6 512h44.12c9.75 0 17.66-7.9 17.66-17.66v-93.47c0-10.9-3.43-21.12-9.25-29.7l-42.2 42.2c-6.62 6.63-10.35 15.62-10.35 24.98V512zM132.4 512H88.3c-9.76 0-17.66-7.9-17.66-17.66v-93.47c0-10.9 3.43-21.12 9.25-29.7l42.2 42.2c6.62 6.63 10.35 15.62 10.35 24.98V512z"/></g><path fill="#D5DCEC" d="M256 388.4c-4.58 0-8.87-.55-13-1.35l9.6 33.62c.98 3.4 5.82 3.4 6.8 0l9.6-33.62c-4.13.8-8.42 1.36-13 1.36z"/><path fill="#553732" d="M163.3 167.72s4.42-35.3 30.9-61.8c0 0 61.8 35.32 167.73 35.32V88.28H150.07v79.44h13.24z"/><g fill="#464655"><path d="M203.04 194.22c-.92 0-1.87-.14-2.8-.45l-52.96-17.66c-4.63-1.53-7.13-6.53-5.58-11.16 1.54-4.62 6.53-7.14 11.17-5.58l52.96 17.66c4.63 1.54 7.13 6.54 5.58 11.16-1.22 3.7-4.66 6.04-8.36 6.04zM308.97 194.22c.92 0 1.86-.14 2.8-.45l52.96-17.66c4.62-1.53 7.12-6.53 5.58-11.16-1.53-4.62-6.53-7.14-11.16-5.58l-52.96 17.66c-4.63 1.54-7.13 6.54-5.6 11.16 1.25 3.7 4.7 6.04 8.4 6.04z"/></g><path fill="#fff" d="M229.52 211.87h-35.3c-4.9 0-8.84-3.95-8.84-8.83V185.4c0-4.9 3.95-8.84 8.83-8.84h35.32c4.87 0 8.82 3.95 8.82 8.83v17.64c0 4.88-3.95 8.83-8.82 8.83z"/><path fill="#5A4137" d="M211.86 203.05c-4.85 0-8.83-3.98-8.83-8.83v-8.83c0-4.87 3.98-8.84 8.83-8.84 4.86 0 8.83 3.97 8.83 8.83v8.82c0 4.85-3.98 8.83-8.84 8.83z"/><path fill="#fff" d="M282.48 211.87h35.3c4.9 0 8.84-3.95 8.84-8.83V185.4c0-4.9-3.95-8.84-8.83-8.84h-35.32c-4.87 0-8.83 3.95-8.83 8.83v17.64c0 4.88 3.96 8.83 8.83 8.83z"/><path fill="#5A4137" d="M300.14 203.05c-4.86 0-8.83-3.98-8.83-8.83v-8.83c0-4.87 3.98-8.84 8.84-8.84 4.85 0 8.83 3.97 8.83 8.83v8.82c0 4.85-3.98 8.83-8.83 8.83z"/><path fill="#464655" d="M273.65 203.05c-4.87 0-8.82-3.96-8.82-8.83s-3.96-8.83-8.83-8.83-8.83 3.95-8.83 8.82-3.95 8.83-8.83 8.83c-4.87 0-8.83-3.96-8.83-8.83 0-14.6 11.9-26.5 26.5-26.5s26.48 11.9 26.48 26.5c0 4.87-3.95 8.83-8.83 8.83z"/><g fill="#707487"><path d="M238.34 203.05c-4.87 0-8.82-3.96-8.82-8.83v-8.83h-35.3v8.82c0 4.87-3.97 8.83-8.84 8.83-4.88 0-8.83-3.96-8.83-8.83v-8.83c0-9.75 7.92-17.67 17.66-17.67h35.32c9.73 0 17.65 7.92 17.65 17.66v8.82c0 4.87-3.95 8.83-8.82 8.83zM326.62 203.05c-4.87 0-8.83-3.96-8.83-8.83v-8.83h-35.32v8.82c0 4.87-3.95 8.83-8.83 8.83s-8.82-3.96-8.82-8.83v-8.83c0-9.75 7.92-17.67 17.65-17.67h35.3c9.75 0 17.67 7.92 17.67 17.66v8.82c0 4.87-3.95 8.83-8.83 8.83z"/></g><path fill="#64463C" d="M305.78 137.8c17 2.1 35.74 3.44 56.15 3.44V88.28h-90.28c14.7 26.3 28.2 42.84 34.13 49.5z"/></svg>