<svg xmlns="http://www.w3.org/2000/svg" viewBox="0 0 464.002 464.002" enable-background="new 0 0 464.002 464.002"><path fill="#E8A055" d="M120 185c0 43-23 157-56 183l135.5 33.55C219.5 229.5 120 185 120 185z"/><path fill="#F6B45E" d="M344 185c0 43 23 157 56 183l-135.48 33.55C244.5 229.5 344 185 344 185z"/><path fill="#FFD7A3" d="M380.38 436.83l-2.98-22.38-6.55-49.07c-1.78-13.34-10.15-24.9-22.27-30.74l-30.86-14.88c-3-1.45-6.5-.14-8 2.8l-18.78-6.9c-6.53-2.2-10.94-8.3-10.94-15.2v-25.8l34.46-14.35C332.36 252.87 344 235.4 344 216v-72c0-22.1-17.9-72-40-72H160c-22.1 0-40 49.9-40 72v72c0 19.38 11.65 36.86 29.54 44.3L184 274.68v25.8c0 6.9-4.4 13-10.94 15.18l-18.78 6.9c-1.5-2.93-5-4.24-8-2.8l-30.85 14.88c-12.13 5.85-20.5 17.4-22.28 30.75l-6.54 49.06-2.97 22.4C81.7 451.2 92.9 464 107.4 464h249.2c14.5 0 25.7-12.78 23.78-27.17z"/><path fill="#72967D" d="M320 326.34l-19.83-7.3C290.55 347.5 263.7 368 232 368s-58.55-20.5-68.17-48.96l-19.83 7.3V336c0 48.6 39.4 88 88 88s88-39.4 88-88v-9.66z"/><path fill="#8ABE69" d="M380.38 436.83l-9.53-71.45c-1.78-13.34-10.15-24.9-22.27-30.74l-30.86-14.88c-3.1-1.5-6.75-.05-8.15 3.1C289.34 368.7 254.67 390 232 400c-22.67-10-57.33-31.3-77.57-77.14-1.4-3.15-5.03-4.6-8.14-3.1l-30.87 14.87c-12.13 5.85-20.5 17.4-22.28 30.75l-9.52 71.45C81.7 451.23 92.9 464 107.43 464h249.16c14.5 0 25.7-12.78 23.78-27.17z"/><path fill="#9BCE7A" d="M237.1 410.87c38.66-18.18 68.23-48.76 86.1-88.47l-5.5-2.64c-3.1-1.5-6.74-.05-8.13 3.1C289.34 368.7 254.67 390 232 400c-22.67-10-57.33-31.3-77.57-77.14-1.4-3.15-5.03-4.6-8.14-3.1l-5.5 2.64c17.87 39.7 47.45 70.3 86.1 88.46l5.1 2.4 5.1-2.4zM144 429.73c0-8.9-2.96-17.54-8.42-24.56L96.24 354.6c-1.5 3.4-2.6 7-3.1 10.78l-9.52 71.45c-1.9 14.4 9.28 27.17 23.8 27.17H144v-34.27z"/><path fill="#FDC88E" d="M280 274.67h-96v25.8c0 5.7-3.02 10.85-7.75 13.7 66.92 11.56 103.75-39.5 103.75-39.5z"/><path fill="#9BCE7A" d="M320 429.73c0-8.9 2.97-17.54 8.43-24.56l39.34-50.58c1.5 3.4 2.58 7 3.08 10.78l9.53 71.45c1.92 14.4-9.28 27.17-23.8 27.17H320v-34.27z"/><path fill="#FFE1B2" d="M314.46 260.3l-51.7 21.55c-9.74 4.06-20.2 6.15-30.76 6.15-10.56 0-21.02-2.1-30.77-6.15l-51.7-21.54C131.66 252.87 120 235.4 120 216v-72c0-22.1 17.9-72 40-72h144c22.1 0 40 49.9 40 72v72c0 19.38-11.65 36.86-29.54 44.3z"/><circle cx="120.001" cy="184.001" r="24" fill="#FFD7A3"/><circle cx="344.002" cy="184.001" r="24" fill="#FFE1B2"/><path fill="#623F33" d="M176 192c-4.4 0-8-3.6-8-8v-8c0-4.4 3.6-8 8-8s8 3.6 8 8v8c0 4.4-3.6 8-8 8zM288 192c-4.4 0-8-3.6-8-8v-8c0-4.4 3.6-8 8-8s8 3.6 8 8v8c0 4.4-3.6 8-8 8z"/><path fill="#E4B07B" d="M232 248.22c-14.22 0-27.53-3.5-36.5-9.6-3.65-2.5-4.6-7.47-2.1-11.12 2.47-3.65 7.45-4.6 11.1-2.1 6.3 4.27 16.57 6.82 27.5 6.82s21.2-2.55 27.5-6.83c3.66-2.5 8.63-1.55 11.1 2.1 2.5 3.65 1.55 8.63-2.1 11.12-8.97 6.1-22.28 9.6-36.5 9.6z"/><path fill="#FFD7A3" d="M245.88 86.4L235 80l-115 73.75V216c0 19.38 11.65 36.86 29.54 44.3l51.7 21.55c2.52 1.05 5.1 1.96 7.72 2.75-22.85-16.7-38.05-31.32-46.96-40.88-6.5-6.95-10-16.12-10-25.62v-48.27c21.94-25.45 81.86-62.68 93.88-83.43z"/><path fill="#FFC85C" d="M232.23 80c0 22.67 112 62.67 112 112 0 139.67 55.77 176 55.77 176-17-55.66-7.17-289.3-95.77-352-16.25-11.5-37.16-16.15-48-16-20.7.3-24 8-24 8v72z"/><path fill="#FFE095" d="M324 72.35c0 10.77-21.73 19.5-32.5 19.5S272 83.12 272 72.35s8.73-19.5 19.5-19.5 32.5 8.73 32.5 19.5zM324 72.35c0-10.77 21.73-19.5 32.5-19.5s19.5 8.73 19.5 19.5-8.73 19.5-19.5 19.5-32.5-8.73-32.5-19.5z"/><path fill="#FFEEB1" d="M324 72.35c9.33 5.4 6.02 28.57.64 37.9s-17.3 12.52-26.64 7.14-12.52-17.33-7.14-26.65c5.4-9.33 23.8-23.78 33.14-18.4zM324 72.35c-9.33-5.38-6.02-28.57-.64-37.9 5.4-9.32 17.3-12.52 26.64-7.13s12.52 17.3 7.14 26.64c-5.4 9.32-23.8 23.78-33.14 18.4z"/><path fill="#FFF2CE" d="M324 72.35c-9.33 5.4-6.02 28.57-.64 37.9 5.4 9.33 17.3 12.52 26.64 7.14s12.52-17.32 7.14-26.65c-5.4-9.33-23.8-23.78-33.14-18.4zM324 72.35c9.33-5.38 6.02-28.57.64-37.9s-17.3-12.52-26.64-7.13-12.52 17.3-7.14 26.64c5.4 9.32 23.8 23.78 33.14 18.4z"/><circle cx="324.001" cy="72.352" r="13" fill="#fff"/><path fill="#FFC85C" d="M232.23 80c0 22.67-112 62.67-112 112 0 139.67-55.77 176-55.77 176 17-55.66 7.17-289.3 95.77-352 16.25-11.5 37.15-16.15 48-16 20.7.3 24 8 24 8v72z"/><path fill="#F6B45E" d="M208.23 0c-10.85-.15-31.75 4.5-48 16-88.6 62.7-78.77 296.34-95.77 352 0 0 55.77-36.33 55.77-176 0-15.44 10.98-29.97 26.06-43.34C169 25.34 232.22 8 232.22 8s-3.3-7.7-24-8z"/></svg>