<svg xmlns="http://www.w3.org/2000/svg" viewBox="0 0 464.001 464.001" enable-background="new 0 0 464.001 464.001"><path fill="#FF9656" d="M125 240l-49-16s-1.33-34.67 8-56l-24-48s12-17.33 40-32l-8-56 72-16V0s89.5 5.5 120 16l40-16v48l48-8s10 28 0 64l32 40-24 24 8 48-61 25-202-1z"/><path fill="#EF8C56" d="M260.73 240.67L260 104s1.33-82-96-104v16L92 32l8 56c-1.75.92-3.44 1.84-5.06 2.78-18.7 10.72-29.26 22.18-33.17 26.94C60.56 119.17 60 120 60 120l24 48c-.3.67-.57 1.35-.84 2.04-6.5 16.6-7.23 39.83-7.23 49.5 0 .8 0 1.5.02 2.1.02 1.5.05 2.36.05 2.36l49 16 135.73.67z"/><path fill="#FFD7A3" d="M384.63 437.02l-10.13-81c-1.53-12.24-9.94-22.5-21.63-26.4l-43.8-14.6c-4.06-1.35-8.5.7-9.97 4.68l-12.16-4.05c-6.53-2.18-10.94-8.3-10.94-15.18v-25.8l34.46-14.36C328.36 252.86 340 235.4 340 216v-8c13.26 0 24-10.74 24-24s-10.74-24-24-24v-16c0-22.1-17.9-40-40-40H156c-22.1 0-40 17.9-40 40v16c-13.26 0-24 10.74-24 24s10.74 24 24 24v8c0 19.38 11.65 36.85 29.54 44.3L180 274.68v25.8c0 6.9-4.4 13-10.94 15.18l-12.16 4.05c-1.45-3.97-5.9-6.03-9.96-4.68l-43.8 14.6c-11.7 3.9-20.1 14.16-21.64 26.4l-10.13 81C69.57 451.35 80.75 464 95.2 464H360.8c14.45 0 25.62-12.65 23.83-26.98z"/><path fill="#FDC88E" d="M276 274.67h-96v25.8c0 5.7-3.02 10.85-7.75 13.7 66.92 11.56 103.75-39.5 103.75-39.5z"/><path fill="#FF8C51" d="M228 352c-25.83 0-49.78-8.03-69.5-21.73 0 33.54 27.2 60.73 60.73 60.73h17.54c33.54 0 60.73-27.2 60.73-60.73C277.78 343.97 253.83 352 228 352z"/><path fill="#4F6E7F" d="M384.63 437.02l-10.13-81c-1.53-12.24-9.94-22.5-21.63-26.4l-43.8-14.6c-4.17-1.4-8.76.8-10.1 5-3.98 12.64-10.06 24.67-17 35.67-25 39.55-82.95 39.55-107.94 0-6.95-11-13.02-23.04-17-35.68-1.34-4.2-5.93-6.4-10.1-5l-43.8 14.6c-11.7 3.9-20.1 14.16-21.63 26.4l-10.13 81c-1.8 14.33 9.38 26.98 23.8 26.98h265.64c14.45 0 25.62-12.65 23.83-26.98z"/><path fill="#FFE1B2" d="M340 160v-16c0-22.1-17.9-40-40-40H156c-22.1 0-40 17.9-40 40v16c-13.26 0-24 10.74-24 24s10.74 24 24 24v8c0 19.38 11.65 36.85 29.54 44.3l51.7 21.55c9.74 4.06 20.2 6.15 30.76 6.15 10.56 0 21.02-2.1 30.77-6.15l51.7-21.54C328.34 252.86 340 235.4 340 216v-8c13.26 0 24-10.74 24-24s-10.75-24-24-24z"/><path fill="#623F33" d="M172 192c-4.4 0-8-3.6-8-8v-8c0-4.4 3.6-8 8-8s8 3.6 8 8v8c0 4.4-3.6 8-8 8zM284 192c-4.4 0-8-3.6-8-8v-8c0-4.4 3.6-8 8-8s8 3.6 8 8v8c0 4.4-3.6 8-8 8z"/><path fill="#E4B07B" d="M228 248.22c-14.22 0-27.53-3.5-36.5-9.6-3.65-2.5-4.6-7.47-2.1-11.12 2.47-3.65 7.45-4.6 11.1-2.1 6.3 4.26 16.57 6.82 27.5 6.82s21.2-2.56 27.5-6.83c3.66-2.5 8.63-1.55 11.1 2.1 2.5 3.65 1.55 8.63-2.1 11.1-8.97 6.12-22.28 9.62-36.5 9.62z"/><path fill="#33546A" d="M88.17 340.17c-3.55 4.5-5.93 9.93-6.67 15.84l-10.13 81.02C69.57 451.35 80.75 464 95.2 464H140v-52.07c0-7.7-2.77-15.13-7.8-20.95l-44.03-50.8zM367.83 340.17c3.55 4.5 5.93 9.93 6.67 15.84l10.13 81.02c1.8 14.33-9.38 26.98-23.82 26.98H316v-52.07c0-7.7 2.77-15.13 7.8-20.95l44.03-50.8z"/><path fill="#FFD7A3" d="M158 243.72c-6.5-6.95-10-16.12-10-25.62V104.8c-18.26 3.7-32 19.85-32 39.2v16c-13.25 0-24 10.74-24 24s10.75 24 24 24v8c0 19.38 11.65 36.85 29.54 44.3l51.7 21.55c2.52 1.05 5.1 1.96 7.72 2.74-22.85-16.72-38.06-31.33-46.96-40.88z"/><path fill="#EF8C56" d="M143.94 101c-4.84 19.02-3.94 43-3.94 43 8-15.33 31.67-35.66 47-43 0 0-43.06 0-43.06 0z"/></svg>