<svg xmlns="http://www.w3.org/2000/svg" viewBox="0 0 464.001 464.001" enable-background="new 0 0 464.001 464.001"><path fill="#956E55" d="M388.63 437.02l-10.13-81c-.1-.75-.2-1.5-.35-2.22-2.22-11.24-10.3-20.52-21.28-24.18L310 314l2-2-18.83-18.83c-2.93-2.93-7.6-3.14-10.78-.5l-2.4 2v-20l34.46-14.36C332.36 252.86 344 235.4 344 216v-4c13.26 0 24-10.74 24-24s-10.74-24-24-24v-36c0-22.1-17.9-40-40-40H160c-22.1 0-40 17.9-40 40v36c-13.26 0-24 10.74-24 24s10.74 24 24 24v4c0 19.38 11.65 36.85 29.54 44.3L184 274.68v20l-2.4-2c-3.17-2.64-7.84-2.43-10.77.5L152 312l2 2-46.87 15.62c-10.98 3.66-19.06 12.94-21.27 24.18-.15.73-.27 1.47-.36 2.2l-10.13 81.02C73.57 451.35 84.75 464 99.2 464h265.6c14.45 0 25.62-12.65 23.83-26.98z"/><path fill="#7C5A49" d="M184 275v40.24c62 6.55 96-40.57 96-40.57l-96 .33z"/><path fill="#A2795C" d="M344 164v-36c0-22.1-17.9-40-40-40H160c-22.1 0-40 17.9-40 40v36c-13.26 0-24 10.74-24 24s10.74 24 24 24v4c0 19.38 11.65 36.85 29.54 44.3l51.7 21.55c9.74 4.06 20.2 6.15 30.76 6.15 10.56 0 21.02-2.1 30.77-6.15l51.7-21.54C332.34 252.86 344 235.4 344 216v-4c13.26 0 24-10.74 24-24s-10.75-24-24-24z"/><path fill="#623F33" d="M176 192c-4.4 0-8-3.6-8-8v-8c0-4.4 3.6-8 8-8s8 3.6 8 8v8c0 4.4-3.6 8-8 8zM288 192c-4.4 0-8-3.6-8-8v-8c0-4.4 3.6-8 8-8s8 3.6 8 8v8c0 4.4-3.6 8-8 8z"/><path fill="#7C5A49" d="M232 248.22c-14.22 0-27.53-3.5-36.5-9.6-3.65-2.5-4.6-7.47-2.1-11.12 2.47-3.65 7.45-4.6 11.1-2.1 6.3 4.26 16.57 6.82 27.5 6.82s21.2-2.56 27.5-6.83c3.66-2.5 8.63-1.55 11.1 2.1 2.5 3.65 1.55 8.63-2.1 11.1-8.97 6.12-22.28 9.62-36.5 9.62z"/><path fill="#956E55" d="M162 243.72c-6.5-6.95-10-16.12-10-25.62V88.8c-18.26 3.7-32 19.85-32 39.2v36c-13.25 0-24 10.74-24 24s10.75 24 24 24v4c0 19.38 11.65 36.85 29.54 44.3l51.7 21.55c2.52 1.05 5.1 1.96 7.72 2.74-22.85-16.72-38.06-31.33-46.96-40.88z"/><path fill="#623F33" d="M114 33.88L120 136c13.26 0 24-10.74 24-24h176c0 13.26 10.74 24 24 24l6-102.12C351.1 15.5 336.5 0 318.07 0H145.94C127.54 0 112.9 15.5 114 33.88zM346 156h-82c-6.62 0-12 5.38-12 12v.43c-5.1-5.2-12.17-8.43-20-8.43s-14.9 3.23-20 8.43V168c0-6.62-5.38-12-12-12h-82c-2.2 0-4 1.8-4 4s1.8 4 4 4h22.7c-.45 1.25-.7 2.6-.7 4v24c0 6.62 5.38 12 12 12h48c6.62 0 12-5.38 12-12v-4c0-11.03 8.97-20 20-20s20 8.97 20 20v4c0 6.62 5.38 12 12 12h48c6.62 0 12-5.38 12-12v-24c0-1.4-.26-2.75-.7-4H346c2.2 0 4-1.8 4-4s-1.8-4-4-4zm-142 36c0 2.2-1.8 4-4 4h-48c-2.2 0-4-1.8-4-4v-24c0-2.2 1.8-4 4-4h48c2.2 0 4 1.8 4 4v24zm112-24v24c0 2.2-1.8 4-4 4h-48c-2.2 0-4-1.8-4-4v-24c0-2.2 1.8-4 4-4h48c2.2 0 4 1.8 4 4z"/><path fill="#95B995" d="M320 464h44.8c14.45 0 25.62-12.65 23.83-26.98L387 424l-8.5-68c-1.53-12.22-9.94-22.48-21.63-26.38l-51.75-17.25c-5.7 12.86-39.4 39.63-73.1 39.63-33.72 0-67.44-26.77-73.14-39.63l-51.75 17.25c-11.7 3.9-20.1 14.16-21.63 26.4l-7.6 60.86-2.53 20.14C73.57 451.35 84.75 464 99.2 464H320zM224 328l8 24-26.47.62zM240 328l-8 24 26.47.62z"/><path fill="#79A67C" d="M224 328l-18.47 24.62c-2.92 3.9-8.6 4.3-12.05.86L152 312l18.83-18.83c2.93-2.93 7.6-3.14 10.78-.5L224 328zM240 328l18.47 24.62c2.92 3.9 8.6 4.3 12.05.86L312 312l-18.83-18.83c-2.93-2.93-7.6-3.14-10.78-.5L240 328zM240 328l-8 24-8-24v136h16zM92.17 340.17c-3.55 4.5-5.93 9.93-6.67 15.84l-10.13 81.02C73.57 451.35 84.75 464 99.2 464H144v-52.07c0-7.7-2.77-15.13-7.8-20.95l-44.03-50.8zM371.83 340.17c3.55 4.5 5.93 9.93 6.67 15.84l10.13 81.02c1.8 14.33-9.38 26.98-23.82 26.98H320v-52.07c0-7.7 2.77-15.13 7.8-20.95l44.03-50.8z"/></svg>