<svg xmlns="http://www.w3.org/2000/svg" width="512pt" height="512pt" viewBox="-56 0 512 512.00001"><path fill="#0a66ea" d="M400.4 478.48c0 18.52-15 33.52-33.5 33.52H33.52C15 512 0 497 0 478.48c0-67.33 43.52-124.73 104.2-145.16 15.35-5.2 31.82-8 48.95-8h94.1c17.14 0 33.6 2.8 48.98 8 60.65 20.43 104.18 77.83 104.18 145.16zm0 0"/><path fill="#5596fb" d="M400.4 478.48c0 18.52-15 33.52-33.5 33.52H64.7c-18.53 0-33.53-15-33.53-33.52 0-67.33 43.52-124.73 104.2-145.16 15.35-5.2 31.82-8 48.95-8h62.94c17.13 0 33.6 2.8 48.97 8 60.65 20.43 104.18 77.83 104.18 145.16zm0 0"/><path fill="#0956c6" d="M89.94 446.16V512H74.36v-65.84c0-4.3 3.5-7.8 7.8-7.8s7.78 3.5 7.78 7.8zm0 0M326.06 446.16V512h-15.6v-65.84c0-4.3 3.5-7.8 7.8-7.8s7.8 3.5 7.8 7.8zm0 0"/><path fill="#d63030" d="M219.28 448.28h-37.46L162.1 512h77.57zm0 0"/><path fill="#fb5858" d="M217.18 449.86h-33.94c-6.86 0-12.47-5.6-12.47-12.47v-30.03c0-6.86 5.6-12.47 12.47-12.47h33.94c6.86 0 12.46 5.6 12.46 12.47v30.02c0 6.85-5.6 12.46-12.46 12.46zm0 0"/><path fill="#0956c6" d="M202.9 393.15l-2.7 1.75-48.55 31.45c-7.18 4.65-17.26 2.37-21.18-4.8l-27.58-86.88 1.3-1.35c15.35-5.2 31.82-8 48.95-8h9.8l37.26 63.25zm0 0M297.53 334.67l-27.6 86.88c-3.9 7.17-13.98 9.45-21.16 4.8L200.2 394.9l-2.7-1.75 2.7-4.58 37.28-63.25h9.78c17.13 0 33.6 2.8 48.97 8zm0 0"/><g fill="#e3a76f"><path d="M338.72 211c0 21.84-17.7 39.54-39.53 39.54-21.85 0-39.55-17.7-39.55-39.53 0-21.82 17.7-39.53 39.54-39.53 21.82 0 39.52 17.7 39.52 39.54zm0 0M162.94 266.33v58.72c0 .18.05.35.13.5l36.3 61.6c.38.64 1.3.64 1.67 0l36.3-61.6c.1-.15.13-.32.13-.5v-58.72c0-8.72-7.06-15.78-15.78-15.78H178.7c-8.7 0-15.78 7.06-15.78 15.78zm0 0M140.77 211.02c0 21.83-17.7 39.53-39.54 39.53-21.83 0-39.53-17.7-39.53-39.53 0-21.84 17.7-39.54 39.53-39.54 21.84 0 39.54 17.7 39.54 39.54zm0 0M303 55.34v183.84c0 51.46-37.84 94.1-87.2 101.6-5.1.78-10.3 1.18-15.6 1.18-56.76 0-102.78-46.02-102.78-102.78V55.34c0-18.74 15.2-33.93 33.94-33.93h137.7C287.8 21.4 303 36.6 303 55.35zm0 0"/></g><path fill="#f2bb88" d="M303 55.34v183.84c0 51.46-37.84 94.1-87.2 101.6-49.38-7.5-87.2-50.14-87.2-101.6V55.34c0-18.74 15.18-33.93 33.92-33.93h106.54C287.8 21.4 303 36.6 303 55.35zm0 0"/><path fill="#738c96" d="M266.37 197.7c0 6.87-5.56 12.43-12.42 12.43s-12.43-5.56-12.43-12.42c0-6.85 5.57-12.4 12.43-12.4 6.86 0 12.42 5.55 12.42 12.4zm0 0M282.22 163.77c-16.72-10.5-43.6-5.3-46.6-4.7-4.22.9-6.92 5.02-6.04 9.23.88 4.22 5 6.93 9.22 6.04 6.02-1.26 25.42-3.47 35.13 2.63 1.28.8 2.72 1.2 4.13 1.2 2.6 0 5.13-1.3 6.6-3.65 2.3-3.65 1.2-8.46-2.44-10.75zm0 0M158.9 197.7c0 6.87-5.57 12.43-12.43 12.43-6.86 0-12.42-5.56-12.42-12.42 0-6.85 5.56-12.4 12.42-12.4s12.42 5.55 12.42 12.4zm0 0M164.8 159.08c-3-.62-29.88-5.82-46.6 4.7-3.65 2.28-4.74 7.1-2.45 10.74 1.48 2.35 4 3.64 6.6 3.64 1.42 0 2.85-.38 4.14-1.2 9.68-6.1 28.64-3.95 35.13-2.62 4.2.88 8.33-1.83 9.2-6.04.88-4.2-1.82-8.34-6.03-9.22zm0 0"/><path fill="#e6e6e6" d="M178.82 227.17c0-11.04-14.27-20-31.88-20s-31.88 8.96-31.88 20c0 11.05 14.27 20 31.88 20s31.88-8.95 31.88-20zm0 0M285.36 227.17c0-11.04-14.28-20-31.9-20-17.6 0-31.87 8.96-31.87 20 0 11.05 14.27 20 31.87 20s31.9-8.95 31.9-20zm0 0"/><path fill="#9c6a53" d="M253.47 199.38c-12.65 0-23.74 3.95-30.95 10.23-5.36-6.24-13.37-10.22-22.3-10.22-8.95 0-16.96 3.98-22.32 10.23-7.2-6.27-18.3-10.22-30.96-10.22-22.24 0-39.67 12.2-39.67 27.8 0 15.58 17.43 27.8 39.67 27.8 25.43 0 39.68-14.93 39.68-26.9 0-7.24 6.1-13.12 13.6-13.12 7.48 0 13.58 5.88 13.58 13.12 0 11.97 14.25 26.9 39.68 26.9 22.24 0 39.67-12.22 39.67-27.8 0-15.6-17.43-27.8-39.68-27.8zm-106.53 40c-13.8 0-24.1-6.44-24.1-12.2s10.32-12.22 24.1-12.22c13.8 0 24.1 6.45 24.1 12.2s-10.3 12.23-24.1 12.23zm106.53 0c-13.78 0-24.08-6.44-24.08-12.2s10.3-12.22 24.07-12.22c13.8 0 24.1 6.45 24.1 12.2s-10.3 12.23-24.1 12.23zm0 0"/><path fill="#738c96" d="M200.2 290.63c-15.82 0-28.7-12.88-28.7-28.7 0-4.3 3.5-7.8 7.8-7.8s7.8 3.5 7.8 7.8c0 7.23 5.87 13.12 13.1 13.12 7.25 0 13.13-5.9 13.13-13.12 0-4.3 3.5-7.8 7.8-7.8s7.78 3.5 7.78 7.8c0 15.82-12.86 28.7-28.7 28.7zm0 0"/><path fill="#9bb9c3" d="M324.13 47.1v82.76c0 3.2-2.6 5.8-5.8 5.8h-32.3c-17.28 0-31.3-14-31.3-31.3V47.1c0-16.97 13.48-30.78 30.3-31.3.34 0 .67-.02 1-.02h6.8c17.28 0 31.3 14.02 31.3 31.3zm0 0M305.07 5.75V16.3c0 4.2-.82 8.78-2.42 13.64-14.6 44.6-93.94 112.52-195.6 111.86H87.6c-10.94 0-19.8-6.12-19.8-13.66V42.82c0-16.98 14.34-31.65 35.15-38.58C111.13 1.54 120.3 0 129.98 0h166.75c4.6 0 8.34 2.58 8.34 5.75zm0 0"/><path fill="#b4d2d7" d="M305.07 5.75V16.3c0 4.2-.82 8.78-2.42 13.64-35.42 33.08-93.02 62.8-160.43 62.37h-19.46c-10.94 0-19.8-6.1-19.8-13.66V4.24C111.12 1.54 120.28 0 129.97 0h166.75c4.6 0 8.34 2.58 8.34 5.75zm0 0"/></svg>