<svg xmlns="http://www.w3.org/2000/svg" viewBox="0 0 512 512" enable-background="new 0 0 512 512"><path fill="#E6E6E6" d="M310.43 54.42c0 .9-.03 1.8-.07 2.67-1.4 28.82-25.2 51.76-54.36 51.76-29.17 0-52.98-22.94-54.36-51.77-.05-.9-.07-1.78-.07-2.68C201.57 24.37 225.94 0 256 0s54.43 24.37 54.43 54.42z"/><path fill="#D3D3D3" d="M223.14 54.43c0-26.37 18.75-48.35 43.64-53.36C263.3.37 259.68 0 256 0c-30.06 0-54.43 24.37-54.43 54.43s24.37 54.42 54.43 54.42c3.7 0 7.3-.37 10.78-1.07-24.9-5-43.64-27-43.64-53.35z"/><path fill="#72CDED" d="M385.4 409.77V512H126.6V409.77c0-33.6 21.43-62.2 51.35-72.9 3.6-1.3 7.33-2.32 11.17-3.07H322.9c3.83.75 7.55 1.78 11.16 3.07 29.92 10.7 51.33 39.3 51.33 72.9z"/><g fill="#5FBAD3"><path d="M222.03 333.8h-32.91c-35.62 6.94-62.5 38.32-62.5 75.97V512h32.9V409.77c0-37.65 26.9-69.03 62.5-75.96zM334.06 336.87l-39.75 28.87c-22.84 16.6-53.77 16.6-76.6 0l-39.75-28.87c3.6-1.3 7.33-2.32 11.17-3.07H322.9c3.83.75 7.55 1.78 11.16 3.07z"/></g><g fill="#E0B394"><path d="M138.06 236.75c-14.08-.63-25.28-12.24-25.28-26.46 0-14.63 11.85-26.5 26.48-26.5 1.32 0 2.6.1 3.88.3M373.93 236.75c14.08-.63 25.3-12.24 25.3-26.46 0-14.63-11.87-26.5-26.5-26.5-1.32 0-2.62.1-3.88.3"/></g><path fill="#F7CBA4" d="M305.4 309.87v63.04c0 27.3-22.12 49.4-49.4 49.4-27.28 0-49.4-22.1-49.4-49.4V309.9h98.8z"/><path fill="#E0B394" d="M305.4 309.87v47.8l-11.1 8.07c-22.84 16.6-53.77 16.6-76.6 0l-11.1-8.06v-47.8h98.8z"/><path fill="#F7CBA4" d="M217.7 351.2l-46.6-33.85c-24.62-17.88-37.94-47.46-35-77.76l8.07-83.63C149.74 98.37 198.14 54.43 256 54.43s106.26 43.94 111.83 101.54l8.08 83.62c2.94 30.3-10.38 59.87-35 77.75l-46.6 33.85c-22.84 16.6-53.77 16.6-76.6 0z"/><path fill="#E0B394" d="M165.08 256.07c-.78 13.25 3.53 26.28 12.07 36.44l48.7 59.84c2.53 3.03 5.42 5.58 8.54 7.6-5.87-2.04-11.5-4.96-16.7-8.74l-46.6-33.85c-24.62-17.9-37.93-47.47-35-77.76l8.07-83.63c5.5-57.04 53.03-100.7 110.15-101.52-35.19.85-75.03 34.02-77.1 69.34l-12.14 132.27z"/><path fill="#D3D3D3" d="M310.36 57.1c-1.4 28.82-25.2 51.76-54.36 51.76-29.17 0-52.98-22.94-54.36-51.77 15.42-8.54 33-13.55 51.66-14 .34 0 .68 0 1.02 0 .56-.03 1.1-.03 1.68-.03 19.65 0 38.2 5.07 54.36 14.02z"/><path fill="#E6E6E6" d="M369.2 169.92c-53.7 0-83.68-57.1-83.68-57.1s-25.06 46.36-111.45 45.26c-9.25-.12-19.18-.8-29.9-2.1 5.48-56.7 52.47-100.18 109.13-101.52.34 0 .68 0 1.02 0 .56-.03 1.1-.03 1.68-.03 28.93 0 55.5 10.98 75.53 29.17 20.03 18.2 33.52 43.57 36.3 72.37l1.36 13.95z"/><path fill="#D3D3D3" d="M254.32 54.45c-35.18.85-75.03 34-77.1 69.34l-3.15 34.27c-9.25-.1-19.18-.78-29.9-2.1 5.48-56.7 52.47-100.17 109.13-101.5.34-.02.68-.02 1.02-.02z"/><g fill="#D7E9F4"><circle cx="305.12" cy="232.617" r="31.78"/><circle cx="206.875" cy="232.617" r="31.78"/></g><g fill="#B6CDD8"><path d="M311.93 233.75H298.3c-3.75 0-6.8-3.05-6.8-6.8s3.05-6.82 6.8-6.82h13.63c3.76 0 6.8 3.05 6.8 6.8s-3.04 6.82-6.8 6.82zM213.68 233.75h-13.6c-3.77 0-6.82-3.05-6.82-6.8s3.05-6.82 6.8-6.82h13.62c3.76 0 6.8 3.05 6.8 6.8s-3.04 6.82-6.8 6.82z"/></g><path fill="#E0B394" d="M247 279.18l14.78-3.94c4.55-1.2 7.25-5.88 6.04-10.43L257.75 227"/><path fill="#ED7C58" d="M376.58 198.38c-2.05-2.37-5.63-2.63-8-.6l-27.65 23.87c-4.7-15.32-18.97-26.5-35.8-26.5-18.73 0-34.3 13.82-37.03 31.8h-24.2c-2.74-17.98-18.3-31.8-37.02-31.8-16.84 0-31.1 11.18-35.8 26.5L143.4 197.8c-2.37-2.05-5.95-1.8-8 .58s-1.8 5.96.6 8l33.5 28.93c1.4 19.4 17.6 34.77 37.36 34.77 18.72 0 34.28-13.8 37.02-31.78h24.2c2.74 17.96 18.3 31.77 37.02 31.77 19.75 0 35.96-15.36 37.35-34.76L376 206.4c2.37-2.06 2.63-5.64.58-8.02zm-169.7 60.34c-14.4 0-26.1-11.7-26.1-26.1s11.7-26.1 26.1-26.1 26.1 11.7 26.1 26.1-11.7 26.1-26.1 26.1zm98.24 0c-14.4 0-26.1-11.7-26.1-26.1s11.7-26.1 26.1-26.1c14.4 0 26.1 11.7 26.1 26.1s-11.7 26.1-26.1 26.1z"/><g fill="#5FBAD3"><path d="M186.76 512h-17.03l8.52-108.14zM342.25 512h-17.02l8.5-108.14z"/></g><path fill="#4D4D4D" d="M225.07 293.83c6.56 1.5 11.73 2.68 16.75 3.3 4.96.68 9.56 1 14.18 1 4.62 0 9.22-.34 14.18-1 5-.65 10.17-1.82 16.75-3.3-1.54 6.6-6.06 11.94-11.63 15.68-5.62 3.72-12.47 5.67-19.3 5.66-6.83 0-13.67-1.96-19.3-5.68-5.56-3.73-10.08-9.06-11.63-15.65z"/></svg>