<svg xmlns="http://www.w3.org/2000/svg" viewBox="0 0 464 464" enable-background="new 0 0 464 464"><path fill="#956E55" d="M380.38 436.83l-9.2-68.9c-1.95-14.72-11.9-27.14-25.83-32.26l-54.4-20.02c-6.54-2.18-10.95-8.3-10.95-15.18v-25.8l34.46-14.36C332.36 252.86 344 235.4 344 216v-8c13.26 0 24-10.74 24-24s-10.74-24-24-24v-16c0-22.1-17.9-56-40-56H160c-22.1 0-40 33.9-40 56v16c-13.26 0-24 10.74-24 24s10.74 24 24 24v8c0 19.38 11.65 36.85 29.54 44.3L184 274.68v25.8c0 6.88-4.4 13-10.94 15.18l-54.4 20.02c-13.94 5.12-23.9 17.54-25.85 32.25l-9.18 68.9C81.7 451.23 92.9 464 107.42 464h249.17c14.5 0 25.7-12.78 23.78-27.17z"/><path fill="#6E4439" d="M320 32s23.5-32 64-32 64 30.67 64 72c0 41.97-46.67 154.67-24 224 0 0-60-20.67-80-104-18.34-76.42 8-128 8-128l-32-32z"/><path fill="#5E342E" d="M347 40s26.5-19 45-8c40.72 24.2 7.45 90.73 0 128-10 50-6 98 32 136 0 0-60-20.67-80-104-18.34-76.42 3-128 3-128V40z"/><path fill="#BD445A" d="M356.1 50.67c3.28-2.95 3.57-8 .62-11.3l-19.46-21.75c-2.95-3.3-8-3.57-11.3-.63-3.3 2.94-3.57 8-.63 11.3l19.47 21.74c2.94 3.3 8 3.57 11.3.63z"/><path fill="#6E4439" d="M144 32S120.5 0 80 0 16 30.67 16 72c0 41.97 46.67 154.67 24 224 0 0 60-20.67 80-104 18.34-76.42-8-128-8-128l32-32z"/><path fill="#5E342E" d="M117 40s-26.5-19-45-8c-40.72 24.2-7.45 90.73 0 128 10 50 6 98-32 136 0 0 60-20.67 80-104 18.34-76.42-3-128-3-128V40z"/><path fill="#BD445A" d="M107.9 50.67c-3.28-2.95-3.56-8-.62-11.3l19.46-21.75c2.95-3.3 8-3.57 11.3-.63 3.3 2.94 3.57 8 .63 11.3L119.2 50.03c-2.94 3.3-8 3.57-11.3.63z"/><path fill="#7C5A49" d="M280 274.67l-96-21.34v47.14c0 5.76-3.2 10.83-8.02 13.66C243.08 325.87 280 274.67 280 274.67z"/><path fill="#A2795C" d="M344 160v-16c0-22.1-17.9-56-40-56H160c-22.1 0-40 33.9-40 56v16c-13.26 0-24 10.74-24 24s10.74 24 24 24v8c0 19.38 11.65 36.85 29.54 44.3l51.7 21.55c9.74 4.06 20.2 6.15 30.76 6.15 10.56 0 21.02-2.1 30.77-6.15l51.7-21.54C332.34 252.86 344 235.4 344 216v-8c13.26 0 24-10.74 24-24s-10.75-24-24-24z"/><path fill="#623F33" d="M176 192c-4.4 0-8-3.6-8-8v-8c0-4.4 3.6-8 8-8s8 3.6 8 8v8c0 4.4-3.6 8-8 8zM288 192c-4.4 0-8-3.6-8-8v-8c0-4.4 3.6-8 8-8s8 3.6 8 8v8c0 4.4-3.6 8-8 8z"/><path fill="#7C5A49" d="M232 248.22c-14.22 0-27.53-3.5-36.5-9.6-3.65-2.5-4.6-7.47-2.1-11.12 2.47-3.65 7.45-4.6 11.1-2.1 6.3 4.26 16.57 6.82 27.5 6.82s21.2-2.56 27.5-6.83c3.66-2.5 8.63-1.55 11.1 2.1 2.5 3.65 1.55 8.63-2.1 11.1-8.97 6.12-22.28 9.62-36.5 9.62z"/><path fill="#956E55" d="M239.94 97.36L230 84c-23.67 54-86.78 63.6-110 64.8V160c-13.26 0-24 10.74-24 24s10.74 24 24 24v8c0 19.38 11.65 36.85 29.54 44.3l51.7 21.55c2.52 1.05 5.1 1.96 7.7 2.74-22.83-16.72-38.03-31.32-46.94-40.88-6.5-6.95-10-16.12-10-25.62v-44.7c22.66-7.92 85.82-33.7 87.94-76.04z"/><path fill="#6E4439" d="M272 0c-26 0-40 8-40 8s-14-8-40-8-124.67 50.05-88 166.06c0 0 128-22.73 128-78.06 0 55.33 128 78.06 128 78.06C396.67 50.06 298 0 272 0z"/><path fill="#653C34" d="M232 8s-14-8-40-8-124.67 50.05-88 166.06c0 0 15.5-2.76 35.7-8.67C117.1 53.36 207.2 8.07 232 8z"/><path fill="#BD445A" d="M137.16 380l-17.6-44.6c-1.17-2.95.27-6.27 3.2-7.42l19.15-7.56c2.94-1.16 6.26.28 7.42 3.22l17.6 44.6L137.16 380zM326.85 380l17.6-44.6c1.16-2.95-.28-6.27-3.22-7.42l-19.14-7.56c-2.94-1.16-6.26.28-7.42 3.22l-17.6 44.6L326.85 380z"/><path fill="#F05467" d="M312 368H152c-8.84 0-16 7.16-16 16v80h192v-80c0-8.84-7.16-16-16-16z"/><path fill="#FFC84A" d="M280 384l-48 24-48-24-48 24v16l48-24 48 24 48-24 48 24v-16z"/><path fill="#FFA34E" d="M280 416l-48 24-48-24-48 24v16l48-24 48 24 48-24 48 24v-16z"/></svg>