<svg xmlns="http://www.w3.org/2000/svg" width="512pt" height="512pt" viewBox="0 0 512 512"><g><path fill="rgb(39.607843%,69.803922%,100%)" d="M512 256c0 141.4-114.6 256-256 256-78.2 0-153.34-36.65-201.57-98.18C19.27 369 0 312.96 0 256 0 114.6 114.6 0 256 0s256 114.6 256 256zm0 0"/><path fill="rgb(5.882353%,60.784314%,90.980392%)" d="M512 256c0 26.05-3.9 51.2-11.13 74.87C468.87 435.72 371.33 512 256 512c-104.56 0-194.5-62.7-234.23-152.55C7.77 327.82 0 292.82 0 256c0-46.22 12.25-89.57 33.68-127C77.8 206.07 160.84 258 256 258s178.2-51.93 222.32-129C499.75 166.43 512 209.78 512 256zm0 0"/><path fill="rgb(70.980392%,88.627451%,21.568627%)" d="M30.74 377.7c7.16 13.22 15.43 25.74 24.72 37.43C102.36 474.15 174.76 512 256 512s153.64-37.85 200.54-96.87c9.3-11.7 17.56-24.2 24.72-37.43zm0 0"/><path fill="rgb(100%,81.960784%,7.058824%)" d="M256 132.67h35.5v21H256zm0 0"/><path fill="rgb(19.607843%,23.137255%,35.294118%)" d="M251 125.33h10V177h-10zm0 0"/><path fill="#fff" d="M444.55 275v154.16c-.52.57-1.04 1.13-1.56 1.7-.85.88-1.68 1.76-2.53 2.64H71.53c-.85-.88-1.68-1.76-2.52-2.65-.5-.56-1.03-1.12-1.55-1.7V275l35.78.07h305.54zm0 0"/><path fill="rgb(81.568627%,96.470588%,100%)" d="M444.55 275.07v154.1c-.52.56-1.04 1.12-1.56 1.68-.85.9-1.68 1.77-2.53 2.65H256V275.15h28.23l29.27-.02zm0 0"/><path fill="rgb(65.098039%,22.352941%,7.843137%)" d="M467.1 288.27H44.9c15.05-12.6 23.5-19.67 38.54-32.27h345.12c15.05 12.6 23.5 19.66 38.54 32.27zm0 0"/><path fill="rgb(47.843137%,17.647059%,10.196078%)" d="M467.1 288.27H256V256h172.56c15.05 12.6 23.5 19.66 38.54 32.27zm0 0"/><path fill="#fff" d="M198.5 239.44h115V433.5h-115zm0 0"/><path fill="rgb(81.568627%,96.470588%,100%)" d="M256 239.44h57.5V433.5H256zm0 0M211.67 347h88.66v86.5h-88.66zm0 0"/><path fill="rgb(39.607843%,69.803922%,100%)" d="M256 347h44.33v86.5H256zm0 0"/><path fill="rgb(65.098039%,22.352941%,7.843137%)" d="M349.23 248.5H162.77L256 165zm0 0"/><path fill="rgb(47.843137%,17.647059%,10.196078%)" d="M349.23 248.5H256V165zm0 0"/><path fill="#fff" d="M440.46 433.5c-.73.76-1.46 1.5-2.2 2.26-.73.75-1.47 1.5-2.22 2.22-.75.74-1.5 1.48-2.25 2.2-.76.73-1.53 1.46-2.3 2.18-.75.72-1.52 1.43-2.3 2.14-.74.7-1.5 1.38-2.25 2.06-.12.1-.24.22-.37.33-.93.82-1.87 1.65-2.8 2.46-.12.1-.24.2-.35.3-.97.84-1.95 1.68-2.94 2.5-2.38 2-4.78 3.94-7.22 5.84-.56.43-1.1.86-1.66 1.28-3.1 2.37-6.24 4.68-9.44 6.9-.86.6-1.73 1.2-2.6 1.8-1.74 1.17-3.5 2.33-5.26 3.47-3.54 2.28-7.15 4.48-10.82 6.6-1.8 1.03-3.64 2.05-5.48 3.05-.9.5-1.8.98-2.73 1.46-.92.5-1.84.96-2.76 1.43-.92.46-1.84.93-2.77 1.4-.92.45-1.85.9-2.8 1.35-.92.45-1.85.9-2.8 1.33-.93.44-1.87.88-2.82 1.3-.72.33-1.45.66-2.18.97-.1.06-.2.1-.32.15-.45.2-.9.4-1.34.58-.8.36-1.64.7-2.47 1.06-1.7.72-3.43 1.42-5.16 2.1-.87.34-1.74.68-2.62 1-1.1.43-2.18.84-3.27 1.23-.97.36-1.94.7-2.9 1.05-.7.25-1.4.5-2.1.72-.1.05-.23.1-.35.13-.62.2-1.25.42-1.87.62-.84.28-1.68.55-2.52.82-.16.05-.3.1-.47.15-.97.3-1.95.62-2.92.9-.1.04-.2.08-.32.1-.75.24-1.5.46-2.26.68-.38.12-.76.23-1.15.34 0 0-.03 0-.04 0-.7.2-1.4.4-2.12.6-1.87.53-3.76 1.03-5.65 1.5-.7.2-1.4.37-2.1.54-.18.04-.36.1-.54.13-.13.03-.26.06-.4.1-.8.2-1.63.38-2.45.57-.42.1-.86.2-1.3.3-.44.1-.88.2-1.32.3-.17.03-.35.07-.52.1-.6.14-1.18.26-1.77.4-.2.03-.4.07-.6.1-.63.14-1.28.27-1.92.4-.4.08-.78.16-1.17.23-.65.13-1.3.26-1.96.37-.9.18-1.83.35-2.75.5-.66.12-1.3.24-1.97.34-.04 0-.1 0-.13.02-.77.13-1.55.26-2.32.38-.14.02-.27.04-.4.06-1 .16-2 .3-3 .45-.76.1-1.52.2-2.28.3-.6.1-1.2.17-1.8.24-.96.13-1.93.25-2.9.36-.1 0-.2.02-.28.03-.88.1-1.76.2-2.65.3-1.1.1-2.17.2-3.26.3-.68.07-1.37.13-2.07.18-.58.06-1.16.1-1.73.15-.13 0-.25.02-.38.03-.82.06-1.65.12-2.47.17-1.12.08-2.23.14-3.35.2-.92.05-1.84.1-2.76.12-.15 0-.3 0-.45.02-1.18.04-2.36.08-3.53.1-.93.04-1.86.06-2.8.07h-.15c-1.27.02-2.54.03-3.82.03-1.28 0-2.55 0-3.82-.03h-.15c-.94 0-1.87-.03-2.8-.06-1.17-.02-2.35-.06-3.52-.1-.14-.02-.3-.02-.44-.03-.92-.03-1.84-.07-2.76-.12-1.12-.06-2.23-.12-3.35-.2-.82-.05-1.65-.1-2.47-.17-.13 0-.25-.02-.38-.03-.57-.04-1.15-.1-1.73-.14-.7-.04-1.4-.1-2.08-.17-1.1-.1-2.18-.2-3.27-.3-.9-.1-1.77-.2-2.65-.3-.1 0-.18-.02-.27-.03-.97-.1-1.94-.23-2.9-.36-.6-.07-1.2-.15-1.8-.24-.76-.1-1.52-.2-2.28-.3-1-.15-2-.3-3-.46-.13-.02-.26-.04-.4-.06-.77-.12-1.55-.25-2.32-.38-.04 0-.1 0-.13-.02-.66-.1-1.3-.22-1.96-.34-.9-.15-1.83-.32-2.74-.5-.66-.1-1.3-.24-1.97-.37-.4-.07-.8-.15-1.18-.23-.64-.13-1.3-.26-1.93-.4-.2-.03-.4-.07-.6-.1-.58-.14-1.17-.26-1.76-.4-.17-.03-.35-.07-.52-.1-.44-.1-.88-.2-1.32-.3-.44-.1-.88-.2-1.3-.3-.83-.2-1.65-.38-2.47-.58-.13-.03-.26-.06-.4-.1-.17-.03-.34-.08-.5-.12-.72-.17-1.43-.35-2.14-.53-1.9-.47-3.8-.97-5.66-1.5-.7-.2-1.42-.4-2.12-.6 0 0-.03 0-.04 0-.4-.12-.77-.23-1.15-.35-.76-.22-1.5-.44-2.26-.67-.1-.03-.2-.07-.32-.1-.97-.3-1.95-.6-2.92-.9-.16-.06-.3-.1-.47-.16-.84-.27-1.68-.54-2.52-.83-.62-.2-1.25-.42-1.87-.63-.12-.04-.24-.08-.36-.13-.7-.23-1.38-.47-2.07-.72-.97-.34-1.94-.7-2.9-1.05-1.1-.4-2.2-.8-3.28-1.22-.88-.33-1.75-.67-2.62-1-1.73-.7-3.45-1.4-5.16-2.1-.83-.36-1.66-.7-2.48-1.07-.46-.2-.9-.38-1.35-.58-.1-.05-.2-.1-.32-.15-.73-.3-1.46-.64-2.18-.97-.95-.42-1.9-.86-2.83-1.3-.94-.43-1.87-.88-2.8-1.33-.94-.45-1.87-.9-2.8-1.36-.92-.47-1.84-.94-2.76-1.4-.92-.48-1.84-.95-2.75-1.44-.9-.48-1.82-.97-2.72-1.46-2.28-1.23-4.54-2.5-6.77-3.82-.7-.4-1.4-.82-2.1-1.24-.68-.4-1.36-.8-2.04-1.23-.9-.53-1.8-1.1-2.7-1.65-.9-.55-1.77-1.12-2.66-1.7-.9-.56-1.77-1.14-2.65-1.72-1.76-1.16-3.5-2.34-5.23-3.55-.86-.6-1.72-1.2-2.57-1.82-.86-.6-1.7-1.23-2.56-1.85-.86-.6-1.7-1.24-2.54-1.87l-2.25-1.7c-.4-.32-.78-.62-1.17-.93-.52-.4-1.04-.82-1.56-1.23-.82-.65-1.64-1.3-2.46-1.97-.8-.66-1.6-1.33-2.42-2-.8-.67-1.6-1.35-2.4-2.03-.8-.68-1.6-1.37-2.4-2.06-.78-.68-1.57-1.38-2.35-2.08-.84-.75-1.67-1.5-2.5-2.27-.7-.65-1.4-1.32-2.12-1.98 0 0 0 0-.02-.03-1.52-1.43-3.03-2.9-4.5-4.36-.76-.73-1.5-1.48-2.23-2.22-.74-.75-1.47-1.5-2.2-2.26zm0 0"/><path fill="rgb(19.607843%,23.137255%,35.294118%)" d="M440.45 433.43c-3.6.73-11.4 11.32-14.35 13.94-5.48 4.88-11.17 9.52-17.05 13.9-11.74 8.73-24.24 16.43-37.3 23.02-26.75 13.5-55.84 22.3-85.58 25.9-61.94 7.52-127.14-9-178.3-45.4-13.06-9.3-25.33-19.77-36.4-31.38 3.24.53 6.98.08 10.28.08 8.96 0 17.93 0 26.9 0 29.24 0 58.5 0 87.74 0 65.96 0 131.92 0 197.9 0 11.03 0 22.08 0 33.12 0 4.2 0 8.98.6 13.1-.08-.02 0-.04 0-.07 0zm0 0"/><path fill="rgb(81.568627%,96.470588%,100%)" d="M211.67 433.5h88.67V458h-88.67zm0 0"/><path fill="rgb(42.352941%,86.27451%,17.647059%)" d="M180.26 433.5H71.53c-.85-.88-1.68-1.76-2.52-2.65-.5-.56-1.03-1.12-1.55-1.7-3.17-3.44-6.25-6.98-9.23-10.6 2.8-1.12 5.85-1.75 9.05-1.8.05-.28.1-.58.18-.87 3.44-16.28 17.87-28.5 35.17-28.5 5.4 0 10.53 1.2 15.13 3.33 3.96-2.8 8.8-4.45 14.02-4.45 13.4 0 24.26 10.86 24.26 24.26 12.97 0 23.57 10.2 24.23 23zm0 0"/><path fill="rgb(0%,62.745098%,25.882353%)" d="M156.3 433.5H71.52c-.85-.88-1.68-1.76-2.52-2.65 2.8-4.85 8-8.13 14-8.2 2-10.85 11.5-19.07 22.93-19.07 3.5 0 6.83.78 9.8 2.17 2.58-1.83 5.72-2.9 9.1-2.9 8.7 0 15.75 7.05 15.75 15.74 8.4 0 15.28 6.6 15.7 14.9zm0 0"/><path fill="rgb(42.352941%,86.27451%,17.647059%)" d="M453.78 418.55c-2.98 3.62-6.06 7.16-9.23 10.6-.52.58-1.04 1.14-1.56 1.7-.85.9-1.68 1.77-2.53 2.65H331.74c.66-12.8 11.26-23 24.23-23 0-13.4 10.86-24.25 24.26-24.25 5.23 0 10.06 1.65 14.02 4.46 4.6-2.12 9.72-3.32 15.13-3.32 17.3 0 31.73 12.22 35.17 28.5.07.3.13.6.18.88 3.2.04 6.25.67 9.05 1.8zm0 0"/><path fill="rgb(0%,62.745098%,25.882353%)" d="M443 430.85c-.85.9-1.68 1.77-2.53 2.65H355.7c.44-8.3 7.3-14.9 15.72-14.9 0-8.7 7.05-15.75 15.74-15.75 3.4 0 6.53 1.07 9.1 2.9 2.98-1.4 6.3-2.17 9.8-2.17 11.43 0 20.93 8.22 22.94 19.06 6 .08 11.2 3.36 14 8.2zm0 0"/><path fill="#fff" d="M130 222c0-.08 0-.14 0-.2 0-12.18-9.87-22.05-22.04-22.05-2.9 0-5.65.57-8.18 1.58-4.9-8.76-14.23-14.68-24.97-14.68-13.94 0-25.54 10-28.07 23.2-.75-.1-1.52-.17-2.3-.17-7.58 0-13.93 5.25-15.63 12.3zm0 0"/><path fill="rgb(81.568627%,96.470588%,100%)" d="M108.5 222c0-.05 0-.1 0-.13 0-7-5.68-12.67-12.68-12.67-1.66 0-3.24.32-4.7.9-2.8-5.03-8.18-8.43-14.36-8.43-8.02 0-14.7 5.74-16.14 13.34-.43-.05-.87-.1-1.32-.1-4.36 0-8 3.03-9 7.1zm0 0"/><path fill="#fff" d="M470.23 222c0-.08 0-.14 0-.2 0-12.18-9.86-22.05-22.03-22.05-2.9 0-5.65.57-8.18 1.58-4.88-8.76-14.23-14.68-24.97-14.68-13.94 0-25.55 10-28.07 23.2-.76-.1-1.53-.17-2.3-.17-7.6 0-13.94 5.25-15.64 12.3zm0 0"/><path fill="rgb(81.568627%,96.470588%,100%)" d="M448.73 222c0-.05 0-.1 0-.13 0-7-5.67-12.67-12.66-12.67-1.67 0-3.25.32-4.7.9-2.82-5.03-8.2-8.43-14.37-8.43-8.02 0-14.7 5.74-16.14 13.34-.43-.05-.88-.1-1.32-.1-4.36 0-8.02 3.03-9 7.1zm0 0"/><path fill="#fff" d="M210.24 156.4c0-.08 0-.14 0-.2 0-12.18-9.86-22.05-22.03-22.05-2.88 0-5.64.56-8.17 1.58-4.9-8.76-14.24-14.68-24.98-14.68-13.94 0-25.55 10-28.07 23.2-.75-.1-1.52-.17-2.3-.17-7.58 0-13.94 5.25-15.63 12.3zm0 0"/><path fill="rgb(81.568627%,96.470588%,100%)" d="M188.74 156.4c0-.05 0-.1 0-.13 0-7-5.67-12.67-12.67-12.67-1.66 0-3.25.33-4.7.9-2.8-5.02-8.2-8.43-14.36-8.43-8 0-14.68 5.74-16.14 13.34-.43-.06-.87-.1-1.32-.1-4.36 0-8 3.03-9 7.1h58.2zm0 0"/><path fill="#fff" d="M402.95 156.4c0-.08 0-.14 0-.2 0-12.18-9.86-22.05-22.04-22.05-2.88 0-5.63.56-8.17 1.58-4.88-8.76-14.23-14.68-24.97-14.68-13.94 0-25.55 10-28.07 23.2-.76-.1-1.53-.17-2.3-.17-7.6 0-13.95 5.25-15.65 12.3zm0 0"/><path fill="rgb(81.568627%,96.470588%,100%)" d="M381.45 156.4c0-.05 0-.1 0-.13 0-7-5.67-12.67-12.67-12.67-1.67 0-3.25.33-4.7.9-2.8-5.02-8.2-8.43-14.37-8.43-8 0-14.68 5.74-16.13 13.34-.43-.06-.87-.1-1.32-.1-4.36 0-8.02 3.03-9 7.1h58.2zm0 0"/><path fill="rgb(27.843137%,30.980392%,43.529412%)" d="M287.1 288.2c0-17.16-13.92-31.1-31.1-31.1s-31.1 13.94-31.1 31.1c0 17.2 13.92 31.1 31.1 31.1s31.1-13.9 31.1-31.1zm0 0"/><path fill="rgb(19.607843%,23.137255%,35.294118%)" d="M287.1 288.2c0 17.2-13.92 31.12-31.1 31.12v-62.2c17.18 0 31.1 13.9 31.1 31.1zm0 0"/><path fill="rgb(81.568627%,96.470588%,100%)" d="M278 288.2c0-12.14-9.86-21.98-22-21.98s-22 9.84-22 22c0 12.14 9.86 21.98 22 21.98s22-9.84 22-22zm0 0"/><path fill="rgb(39.607843%,69.803922%,100%)" d="M278 288.2c0 12.16-9.86 22-22 22v-43.98c12.14 0 22 9.84 22 22zm0 0"/><path fill="rgb(27.843137%,30.980392%,43.529412%)" d="M258 290.2h-16.1v-4H254v-16.15h4zm0 0M255.3 288.92l1.4-1.42 9.35 9.35-1.42 1.4zm0 0"/><path fill="rgb(65.098039%,22.352941%,7.843137%)" d="M224.55 361.95h62.9v71.55h-62.9zm0 0"/><path fill="rgb(47.843137%,17.647059%,10.196078%)" d="M256 361.95h31.45v71.55H256zm0 0"/><path fill="rgb(27.843137%,30.980392%,43.529412%)" d="M125.8 349.5H157v31.16H125.8zm0 0"/><path fill="rgb(19.607843%,23.137255%,35.294118%)" d="M141.4 349.5h15.58v31.16H141.4zm0 0"/><path fill="rgb(27.843137%,30.980392%,43.529412%)" d="M83.92 349.5h31.17v31.16H83.9zm0 0"/><path fill="rgb(19.607843%,23.137255%,35.294118%)" d="M99.5 349.5h15.6v31.16H99.5zm0 0"/><path fill="rgb(27.843137%,30.980392%,43.529412%)" d="M167.84 349.5H199v31.16h-31.16zm0 0"/><path fill="rgb(19.607843%,23.137255%,35.294118%)" d="M183.42 349.5H199v31.16h-15.58zm0 0"/><path fill="rgb(27.843137%,30.980392%,43.529412%)" d="M125.8 301.5H157v31.16H125.8zm0 0"/><path fill="rgb(19.607843%,23.137255%,35.294118%)" d="M141.4 301.5h15.58v31.16H141.4zm0 0"/><path fill="rgb(27.843137%,30.980392%,43.529412%)" d="M83.92 301.5h31.17v31.16H83.9zm0 0"/><path fill="rgb(19.607843%,23.137255%,35.294118%)" d="M99.5 301.5h15.6v31.16H99.5zm0 0"/><path fill="rgb(27.843137%,30.980392%,43.529412%)" d="M167.84 301.5H199v31.16h-31.16zm0 0"/><path fill="rgb(19.607843%,23.137255%,35.294118%)" d="M183.42 301.5H199v31.16h-15.58zm0 0"/><path fill="rgb(27.843137%,30.980392%,43.529412%)" d="M356.92 349.5h31.16v31.16h-31.16zm0 0"/><path fill="rgb(19.607843%,23.137255%,35.294118%)" d="M372.5 349.5h15.58v31.16H372.5zm0 0"/><path fill="rgb(27.843137%,30.980392%,43.529412%)" d="M315.02 349.5h31.17v31.16H315zm0 0"/><path fill="rgb(19.607843%,23.137255%,35.294118%)" d="M330.6 349.5h15.6v31.16h-15.6zm0 0"/><path fill="rgb(27.843137%,30.980392%,43.529412%)" d="M398.94 349.5h31.17v31.16h-31.16zm0 0"/><path fill="rgb(19.607843%,23.137255%,35.294118%)" d="M414.52 349.5h15.6v31.16h-15.6zm0 0"/><path fill="rgb(27.843137%,30.980392%,43.529412%)" d="M356.92 301.5h31.16v31.16h-31.16zm0 0"/><path fill="rgb(19.607843%,23.137255%,35.294118%)" d="M372.5 301.5h15.58v31.16H372.5zm0 0"/><path fill="rgb(27.843137%,30.980392%,43.529412%)" d="M315.02 301.5h31.17v31.16H315zm0 0"/><path fill="rgb(19.607843%,23.137255%,35.294118%)" d="M330.6 301.5h15.6v31.16h-15.6zm0 0"/><path fill="rgb(27.843137%,30.980392%,43.529412%)" d="M398.94 301.5h31.17v31.16h-31.16zm0 0"/><path fill="rgb(19.607843%,23.137255%,35.294118%)" d="M414.52 301.5h15.6v31.16h-15.6zm0 0"/><path fill="#fff" d="M211.67 433.5V458H98.73c-.52-.4-1.04-.82-1.56-1.23-.82-.65-1.64-1.3-2.46-1.97-.8-.66-1.6-1.33-2.42-2-.8-.67-1.6-1.35-2.4-2.03-.8-.68-1.6-1.37-2.4-2.06-.78-.68-1.57-1.38-2.35-2.08-.84-.75-1.67-1.5-2.5-2.27-.7-.65-1.4-1.32-2.12-1.98 0 0 0 0-.02-.03-1.52-1.42-3.02-2.87-4.5-4.36-.76-.73-1.5-1.48-2.23-2.22-.76-.75-1.5-1.5-2.22-2.26zm0 0M440.47 433.5c-.73.76-1.46 1.5-2.2 2.26-.74.75-1.48 1.5-2.23 2.22-.75.74-1.5 1.48-2.25 2.2-.76.73-1.53 1.46-2.3 2.18-.75.72-1.52 1.43-2.3 2.14-.74.7-1.5 1.38-2.25 2.06-.12.1-.24.22-.37.33-.93.82-1.87 1.65-2.8 2.46-.12.1-.24.2-.35.3-.97.84-1.95 1.68-2.94 2.5-2.38 2-4.78 3.94-7.22 5.84H300.32v-24.5zm0 0"/><path fill="rgb(92.941176%,46.666667%,10.588235%)" d="M256 165l-48 83.5h-45.23zm0 0"/><path fill="rgb(100%,91.372549%,33.333333%)" d="M289.98 57.32c0 18.76-15.2 33.98-33.98 33.98-18.77 0-33.98-15.22-33.98-33.98 0-18.77 15.2-33.98 33.98-33.98 18.77 0 33.98 15.2 33.98 33.98zm0 0"/><path fill="rgb(100%,81.960784%,7.058824%)" d="M289.98 57.32c0 18.76-15.2 33.98-33.98 33.98V23.33c18.77 0 33.98 15.22 33.98 34zm0 0"/></g></svg>